<svg width="213" height="374" viewBox="0 0 213 374" fill="none" xmlns="http://www.w3.org/2000/svg">
<path d="M160.316 120.254C159.256 128.034 152.966 133.994 144.846 135.904C144.846 135.904 114.926 214.014 134.096 253.184C164.096 294.514 199.596 129.404 192.266 87.8543C180.266 5.52433 93.5958 73.5243 93.5958 73.5243C62.2658 99.6943 60.9258 120.634 60.9258 120.634C60.9258 120.634 55.0358 141.194 77.2558 167.304C99.4758 193.414 117.256 177.524 122.146 158.524C127.036 139.524 126.576 139.794 126.906 133.454C119.516 129.444 114.846 122.054 115.896 114.304L119.266 89.4443C119.646 86.6643 122.416 84.7543 125.456 85.1643C128.496 85.5743 130.656 88.1643 130.276 90.9343L127.356 112.504C127.156 113.994 128.286 115.384 129.876 115.594C131.466 115.804 132.926 114.774 133.126 113.284L136.066 91.6043C136.446 88.8243 139.216 86.9143 142.256 87.3243C145.296 87.7343 147.456 90.3243 147.076 93.0943L144.106 115.004C143.906 116.494 144.996 117.874 146.536 118.084C148.076 118.294 149.496 117.254 149.696 115.764L152.606 94.3343C152.996 91.4743 155.776 89.4843 158.816 89.8943C161.856 90.3043 164.006 92.9643 163.616 95.8243L160.246 120.684" fill="#FB6B04"/>
<path d="M74.2955 15.0744C80.4655 29.5744 88.9155 46.9944 89.0555 62.4144C69.0455 54.7044 47.5455 40.8344 41.8355 20.0144C37.7755 -6.6356 65.5355 -5.0056 74.2955 15.0844V15.0744Z" fill="#3FBA3D"/>
<path d="M106.506 46.7942C105.526 48.0342 99.2356 54.2142 98.7756 54.3342C95.8956 49.8542 93.2456 41.7242 92.8356 39.2442C92.1056 34.8742 91.5656 28.8642 92.3656 24.4942C93.9356 15.8242 100.296 8.15421 108.836 5.21421C109.196 5.09421 109.936 4.83421 110.306 4.72421C113.156 3.89421 116.616 3.82421 118.476 6.49421C119.936 8.57421 120.806 12.1542 120.646 14.6642C120.206 21.4942 118.266 28.0242 115.086 34.0442" fill="#3FBA3D"/>
<path d="M35.6357 80.1342C29.6057 80.3842 12.7857 77.0542 19.5957 68.1042C38.5957 43.1242 65.0857 54.8142 79.4257 69.6842C67.7557 77.9442 43.4257 80.1642 35.6357 80.1342Z" fill="#3FBA3D"/>
<path d="M201.598 283.498H213V312.404C213 315.435 212.24 318.135 210.72 320.502C209.2 322.869 207.139 324.718 204.539 326.047C201.938 327.334 199.097 327.978 196.017 327.978C192.936 327.978 190.096 327.334 187.495 326.047C184.934 324.718 182.894 322.869 181.374 320.502C179.853 318.135 179.093 315.435 179.093 312.404V283.498H190.496V312.404C190.496 313.65 191.076 314.605 192.236 315.269C193.436 315.892 194.697 316.204 196.017 316.204C197.577 316.204 198.897 315.892 199.978 315.269C201.058 314.646 201.598 313.691 201.598 312.404V283.498Z" fill="#FC6B02"/>
<path d="M153.486 327.978C149.565 327.978 145.944 326.981 142.624 324.988C139.303 322.953 136.662 320.212 134.702 316.765C132.781 313.318 131.821 309.559 131.821 305.489C131.821 301.419 132.781 297.66 134.702 294.213C136.662 290.766 139.303 288.046 142.624 286.053C145.944 284.018 149.565 283 153.486 283C157.407 283 161.027 284.018 164.348 286.053C167.669 288.046 170.289 290.766 172.21 294.213C174.17 297.66 175.15 301.419 175.15 305.489C175.15 309.559 174.17 313.318 172.21 316.765C170.289 320.212 167.669 322.953 164.348 324.988C161.027 326.981 157.407 327.978 153.486 327.978ZM153.486 316.142C155.326 316.142 157.027 315.664 158.587 314.709C160.187 313.754 161.447 312.466 162.368 310.847C163.288 309.185 163.748 307.399 163.748 305.489C163.748 303.579 163.288 301.814 162.368 300.194C161.447 298.533 160.187 297.224 158.587 296.269C157.027 295.314 155.326 294.836 153.486 294.836C151.645 294.836 149.925 295.314 148.325 296.269C146.764 297.224 145.524 298.533 144.604 300.194C143.684 301.814 143.224 303.579 143.224 305.489C143.224 307.399 143.684 309.185 144.604 310.847C145.524 312.466 146.764 313.754 148.325 314.709C149.925 315.664 151.645 316.142 153.486 316.142Z" fill="#FC6B02"/>
<path d="M106.495 302.125H130.02V306.735C130.02 310.556 129.04 314.107 127.08 317.388C125.119 320.627 122.479 323.202 119.158 325.112C115.877 327.023 112.336 327.978 108.536 327.978C104.615 327.978 100.994 326.981 97.6734 324.988C94.3527 322.953 91.7121 320.212 89.7517 316.765C87.8313 313.318 86.8711 309.559 86.8711 305.489C86.8711 301.419 87.8313 297.66 89.7517 294.213C91.7121 290.766 94.3527 288.046 97.6734 286.053C100.994 284.018 104.615 283 108.536 283C111.936 283 115.097 283.768 118.018 285.305C120.978 286.8 123.479 288.877 125.519 291.535L116.577 298.886C115.617 297.64 114.437 296.664 113.037 295.958C111.636 295.21 110.136 294.836 108.536 294.836C106.695 294.836 104.975 295.314 103.375 296.269C101.814 297.224 100.574 298.533 99.6538 300.194C98.7336 301.814 98.2735 303.579 98.2735 305.489C98.2735 307.399 98.7336 309.185 99.6538 310.847C100.574 312.466 101.814 313.754 103.375 314.709C104.975 315.664 106.695 316.142 108.536 316.142C109.816 316.142 111.036 315.893 112.196 315.394C113.397 314.896 114.457 314.211 115.377 313.338H106.495V302.125Z" fill="#FC6B02"/>
<path d="M71.5511 283.498H82.9535V312.404C82.9535 315.435 82.1933 318.135 80.673 320.502C79.1527 322.869 77.0923 324.718 74.4917 326.047C71.8912 327.334 69.0506 327.978 65.9699 327.978C62.8893 327.978 60.0487 327.334 57.4481 326.047C54.8876 324.718 52.8472 322.869 51.3269 320.502C49.8065 318.135 49.0464 315.435 49.0464 312.404V283.498H60.4488V312.404C60.4488 313.65 61.0289 314.605 62.1891 315.269C63.3894 315.892 64.6497 316.204 65.9699 316.204C67.5303 316.204 68.8505 315.892 69.9308 315.269C71.011 314.646 71.5511 313.691 71.5511 312.404V283.498Z" fill="#FC6B02"/>
<path d="M21.6645 301.315L31.9267 283.498H43.3291V327.106H31.9267V305.24L23.0448 320.627H20.2842L11.4024 305.24V327.106H0V283.498H11.4024L21.6645 301.315Z" fill="#FC6B02"/>
<path d="M164.722 343.6C167.229 343.6 169.109 344.373 170.362 345.92C171.642 347.467 172.282 349.907 172.282 353.24C172.282 355.32 172.042 357.173 171.562 358.8C171.082 360.427 170.416 361.813 169.562 362.96C168.709 364.08 167.709 364.933 166.562 365.52C165.416 366.107 164.176 366.4 162.842 366.4C161.429 366.4 160.322 366.093 159.522 365.48C158.722 364.867 158.096 364 157.642 362.88C157.562 363.84 157.496 364.573 157.442 365.08C157.389 365.587 157.349 365.987 157.322 366.28C157.296 366.6 157.269 366.88 157.242 367.12C157.242 367.36 157.216 367.68 157.162 368.08C157.136 368.48 157.096 369.027 157.042 369.72C156.989 370.413 156.909 371.373 156.802 372.6C156.776 372.92 156.709 373.133 156.602 373.24C156.496 373.347 156.269 373.4 155.922 373.4H154.482C153.656 373.4 152.976 373.307 152.442 373.12C151.936 372.96 151.522 372.72 151.202 372.4C150.909 372.08 150.696 371.68 150.562 371.2C150.456 370.747 150.402 370.213 150.402 369.6C150.402 369.333 150.442 368.613 150.522 367.44C150.602 366.267 150.696 364.867 150.802 363.24C150.936 361.587 151.069 359.813 151.202 357.92C151.362 356.027 151.509 354.227 151.642 352.52C151.776 350.787 151.882 349.253 151.962 347.92C152.069 346.587 152.149 345.667 152.202 345.16C152.229 344.573 152.296 344.227 152.402 344.12C152.482 344.04 152.696 344 153.042 344H154.602C156.042 344 157.082 344.307 157.722 344.92C158.389 345.507 158.722 346.213 158.722 347.04C159.336 345.813 160.122 344.933 161.082 344.4C162.069 343.867 163.282 343.6 164.722 343.6ZM161.802 348.92C160.442 348.92 159.442 349.507 158.802 350.68C158.162 351.853 157.842 353.453 157.842 355.48C157.842 356.173 157.882 356.853 157.962 357.52C158.069 358.187 158.242 358.787 158.482 359.32C158.722 359.853 159.042 360.28 159.442 360.6C159.869 360.92 160.402 361.08 161.042 361.08C162.189 361.08 163.149 360.52 163.922 359.4C164.696 358.28 165.082 356.52 165.082 354.12C165.082 353.453 165.029 352.813 164.922 352.2C164.842 351.56 164.682 351 164.442 350.52C164.202 350.04 163.869 349.653 163.442 349.36C163.016 349.067 162.469 348.92 161.802 348.92Z" fill="#3FBA3B"/>
<path d="M143.752 366C142.926 366 142.246 365.92 141.712 365.76C141.206 365.573 140.792 365.32 140.472 365C140.179 364.68 139.966 364.293 139.832 363.84C139.726 363.36 139.672 362.813 139.672 362.2C139.672 361.8 139.686 361.24 139.712 360.52C139.766 359.773 139.846 358.76 139.952 357.48C140.059 356.173 140.179 354.533 140.312 352.56C140.472 350.56 140.659 348.093 140.872 345.16C140.899 344.573 140.966 344.227 141.072 344.12C141.152 344.04 141.366 344 141.712 344H143.272C144.099 344 144.766 344.08 145.272 344.24C145.806 344.4 146.219 344.64 146.512 344.96C146.832 345.28 147.046 345.667 147.152 346.12C147.286 346.573 147.352 347.08 147.352 347.64C147.352 348.04 147.326 348.64 147.272 349.44C147.219 350.24 147.139 351.333 147.032 352.72C146.952 354.08 146.832 355.787 146.672 357.84C146.512 359.867 146.312 362.32 146.072 365.2C146.046 365.52 145.979 365.733 145.872 365.84C145.766 365.947 145.539 366 145.192 366H143.752ZM140.912 339.28C140.912 338.213 141.299 337.373 142.072 336.76C142.846 336.147 143.886 335.84 145.192 335.84C146.339 335.84 147.166 336.08 147.672 336.56C148.206 337.013 148.472 337.627 148.472 338.4C148.472 339.387 148.099 340.213 147.352 340.88C146.632 341.52 145.566 341.84 144.152 341.84C141.992 341.84 140.912 340.987 140.912 339.28Z" fill="#3FBA3B"/>
<path d="M116.564 366C116.27 366 116.124 365.853 116.124 365.56L116.244 363.4C116.27 363.16 116.31 362.867 116.364 362.52C116.417 362.147 116.537 361.84 116.724 361.6C117.177 360.773 117.724 359.88 118.364 358.92C119.004 357.96 119.777 356.787 120.684 355.4C121.59 354.013 122.644 352.347 123.844 350.4C125.07 348.427 126.484 346.027 128.084 343.2H118.964C118.75 343.2 118.617 343.16 118.564 343.08C118.537 343 118.524 342.853 118.524 342.64L118.644 340.4C118.67 340.053 118.71 339.72 118.764 339.4C118.844 339.053 118.977 338.747 119.164 338.48C119.377 338.213 119.67 338 120.044 337.84C120.417 337.68 120.91 337.6 121.524 337.6H136.804C136.964 337.6 137.11 337.64 137.244 337.72C137.377 337.8 137.444 337.947 137.444 338.16L137.284 340.32C137.23 341.013 137.07 341.587 136.804 342.04C136.724 342.173 136.337 342.813 135.644 343.96C134.95 345.08 134.07 346.507 133.004 348.24C131.937 349.973 130.737 351.907 129.404 354.04C128.097 356.173 126.777 358.293 125.444 360.4H135.604C135.764 360.4 135.91 360.44 136.044 360.52C136.177 360.6 136.244 360.747 136.244 360.96L136.084 363.32C136.03 364.12 135.804 364.773 135.404 365.28C135.03 365.76 134.244 366 133.044 366H116.564Z" fill="#3FBA3B"/>
<path d="M110.107 349.4C110.027 350.413 109.934 351.413 109.827 352.4C109.747 353.387 109.667 354.32 109.587 355.2C109.507 356.08 109.441 356.867 109.387 357.56C109.361 358.253 109.347 358.787 109.347 359.16C109.347 359.853 109.427 360.32 109.587 360.56C109.747 360.773 110.014 360.88 110.387 360.88C110.681 360.88 110.934 360.827 111.147 360.72C111.361 360.613 111.561 360.493 111.747 360.36C111.934 360.227 112.094 360.107 112.227 360C112.387 359.893 112.561 359.84 112.747 359.84C112.934 359.84 113.107 359.947 113.267 360.16C113.427 360.373 113.507 360.867 113.507 361.64C113.507 363.107 113.107 364.267 112.307 365.12C111.507 365.973 110.134 366.4 108.187 366.4C106.267 366.4 104.841 365.96 103.907 365.08C103.001 364.173 102.547 362.8 102.547 360.96C102.547 360.56 102.561 360.093 102.587 359.56C102.641 359 102.707 358.28 102.787 357.4C102.867 356.52 102.961 355.44 103.067 354.16C103.201 352.88 103.334 351.293 103.467 349.4H101.347C101.134 349.4 101.001 349.36 100.947 349.28C100.921 349.173 100.907 349.027 100.907 348.84L101.027 346.8C101.054 346.453 101.094 346.12 101.147 345.8C101.227 345.453 101.361 345.147 101.547 344.88C101.761 344.613 102.054 344.4 102.427 344.24C102.801 344.08 103.294 344 103.907 344C104.094 343.52 104.307 342.947 104.547 342.28C104.787 341.613 105.027 340.973 105.267 340.36C105.507 339.72 105.734 339.187 105.947 338.76C106.187 338.333 106.401 338.12 106.587 338.12H107.747C108.867 338.12 109.641 338.467 110.067 339.16C110.494 339.853 110.707 340.68 110.707 341.64C110.707 342.173 110.667 342.96 110.587 344H114.787C115.214 344 115.427 344.187 115.427 344.56L115.267 346.72C115.214 347.52 114.987 348.173 114.587 348.68C114.214 349.16 113.427 349.4 112.227 349.4H110.107Z" fill="#3FBA3B"/>
<path d="M77.7681 361.08C77.7681 358.68 78.8481 356.8 81.0081 355.44C83.1681 354.08 86.3547 353.347 90.5681 353.24C90.5947 352.947 90.6081 352.707 90.6081 352.52C90.6347 352.307 90.6481 352.053 90.6481 351.76C90.6481 350.907 90.4881 350.227 90.1681 349.72C89.8481 349.213 89.1814 348.96 88.1681 348.96C87.6081 348.96 87.1547 349.04 86.8081 349.2C86.4614 349.36 86.1814 349.587 85.9681 349.88C85.7547 350.147 85.5814 350.48 85.4481 350.88C85.3147 351.28 85.1947 351.72 85.0881 352.2C85.0347 352.44 84.9147 352.6 84.7281 352.68C84.5414 352.733 84.2481 352.76 83.8481 352.76C81.1281 352.76 79.7681 351.733 79.7681 349.68C79.7681 348.853 79.9547 348.067 80.3281 347.32C80.7281 346.573 81.3014 345.933 82.0481 345.4C82.8214 344.84 83.7814 344.4 84.9281 344.08C86.0747 343.76 87.4081 343.6 88.9281 343.6C91.8881 343.6 94.0347 344.213 95.3681 345.44C96.7014 346.667 97.3681 348.4 97.3681 350.64C97.3681 350.933 97.3281 351.467 97.2481 352.24C97.1947 352.987 97.1147 353.787 97.0081 354.64C96.9281 355.467 96.8481 356.253 96.7681 357C96.7147 357.747 96.6881 358.267 96.6881 358.56C96.6881 359.227 96.8081 359.707 97.0481 360C97.2881 360.267 97.5547 360.453 97.8481 360.56C98.1681 360.667 98.4481 360.747 98.6881 360.8C98.9281 360.853 99.0481 360.987 99.0481 361.2C99.0481 361.787 98.9681 362.387 98.8081 363C98.6481 363.613 98.3814 364.173 98.0081 364.68C97.6614 365.187 97.1681 365.6 96.5281 365.92C95.9147 366.24 95.1547 366.4 94.2481 366.4C92.9681 366.4 92.0081 366.093 91.3681 365.48C90.7281 364.867 90.3014 364.013 90.0881 362.92C89.4481 363.853 88.6081 364.667 87.5681 365.36C86.5547 366.053 85.2214 366.4 83.5681 366.4C82.7681 366.4 82.0081 366.307 81.2881 366.12C80.5947 365.933 79.9814 365.627 79.4481 365.2C78.9414 364.773 78.5281 364.227 78.2081 363.56C77.9147 362.867 77.7681 362.04 77.7681 361.08ZM90.2081 356.52C89.5147 356.52 88.8347 356.573 88.1681 356.68C87.5014 356.787 86.9014 356.96 86.3681 357.2C85.8614 357.413 85.4481 357.707 85.1281 358.08C84.8081 358.453 84.6481 358.907 84.6481 359.44C84.6481 360.053 84.8347 360.48 85.2081 360.72C85.6081 360.96 86.0347 361.08 86.4881 361.08C86.9147 361.08 87.3414 360.987 87.7681 360.8C88.1947 360.613 88.5681 360.333 88.8881 359.96C89.2347 359.56 89.5281 359.08 89.7681 358.52C90.0081 357.96 90.1547 357.293 90.2081 356.52Z" fill="#3FBA3B"/>
<path d="M68.4 344.68C68.1867 345.32 67.9067 346.16 67.56 347.2C67.24 348.213 66.88 349.333 66.48 350.56C66.08 351.787 65.6667 353.093 65.24 354.48C64.8134 355.84 64.3734 357.173 63.92 358.48C63.4934 359.787 63.0667 361.04 62.64 362.24C62.2134 363.413 61.8267 364.44 61.48 365.32C61.3734 365.533 61.1467 365.707 60.8 365.84C60.48 365.947 59.96 366 59.24 366C58.7867 366 58.32 365.973 57.84 365.92C57.36 365.867 56.9067 365.76 56.48 365.6C56.08 365.44 55.72 365.227 55.4 364.96C55.1067 364.693 54.88 364.36 54.72 363.96C54.32 362.6 53.9334 361.093 53.56 359.44C53.2134 357.76 52.8667 356.053 52.52 354.32C52.1734 352.587 51.8267 350.893 51.48 349.24C51.16 347.56 50.8267 346.04 50.48 344.68C50.48 345.053 50.4667 345.693 50.44 346.6C50.4134 347.507 50.3867 348.56 50.36 349.76C50.3334 350.96 50.2934 352.253 50.24 353.64C50.2134 355.027 50.1867 356.387 50.16 357.72C50.1334 359.027 50.1067 360.253 50.08 361.4C50.0534 362.52 50.04 363.44 50.04 364.16C50.04 364.96 49.9867 365.467 49.88 365.68C49.8 365.893 49.64 366 49.4 366H47.2C45.68 366 44.6 365.707 43.96 365.12C43.3467 364.507 43.04 363.613 43.04 362.44C43.04 362.12 43.0534 361.587 43.08 360.84C43.1334 360.067 43.2 359.16 43.28 358.12C43.36 357.08 43.44 355.947 43.52 354.72C43.6267 353.467 43.7334 352.2 43.84 350.92C43.9734 349.187 44.08 347.747 44.16 346.6C44.2667 345.427 44.3467 344.453 44.4 343.68C44.4534 342.907 44.4934 342.28 44.52 341.8C44.5734 341.32 44.6 340.893 44.6 340.52C44.6267 340.147 44.64 339.8 44.64 339.48C44.6667 339.133 44.68 338.707 44.68 338.2C44.68 337.987 44.76 337.84 44.92 337.76C45.08 337.653 45.2267 337.6 45.36 337.6H50.96C52 337.6 52.8534 337.773 53.52 338.12C54.1867 338.44 54.7334 338.947 55.16 339.64C55.5867 340.333 55.9334 341.24 56.2 342.36C56.4667 343.453 56.7067 344.76 56.92 346.28C57.16 347.8 57.4134 349.56 57.68 351.56C57.9734 353.533 58.3467 355.76 58.8 358.24C59.2267 356.587 59.5867 355.213 59.88 354.12C60.1734 353.027 60.4134 352.12 60.6 351.4C60.8134 350.653 60.9867 350.04 61.12 349.56C61.2534 349.08 61.3734 348.64 61.48 348.24C61.5867 347.813 61.7067 347.36 61.84 346.88C61.9734 346.4 62.1334 345.8 62.32 345.08C62.5067 344.36 62.7334 343.467 63 342.4C63.2934 341.307 63.6534 339.933 64.08 338.28C64.1334 338.12 64.2267 337.973 64.36 337.84C64.4934 337.68 64.7334 337.6 65.08 337.6H71.32C72.1734 337.6 72.8534 337.693 73.36 337.88C73.8934 338.04 74.3067 338.28 74.6 338.6C74.8934 338.92 75.0934 339.32 75.2 339.8C75.3067 340.253 75.36 340.787 75.36 341.4C75.36 342.013 75.32 343.013 75.24 344.4C75.1867 345.76 75.0934 347.307 74.96 349.04C74.8534 350.747 74.7334 352.52 74.6 354.36C74.4934 356.2 74.3734 357.907 74.24 359.48C74.1334 361.053 74.04 362.387 73.96 363.48C73.88 364.573 73.8267 365.213 73.8 365.4C73.7734 365.613 73.72 365.773 73.64 365.88C73.56 365.96 73.4 366 73.16 366H70.96C69.44 366 68.36 365.707 67.72 365.12C67.1067 364.507 66.8 363.72 66.8 362.76C66.8 362.467 66.8267 361.933 66.88 361.16C66.96 360.387 67.0534 359.48 67.16 358.44C67.2667 357.4 67.3867 356.267 67.52 355.04C67.6534 353.787 67.7734 352.547 67.88 351.32C67.9867 350.093 68.08 348.907 68.16 347.76C68.2667 346.587 68.3467 345.56 68.4 344.68Z" fill="#3FBA3B"/>
</svg>
