<svg width="714" height="720" viewBox="0 0 714 720" fill="none" xmlns="http://www.w3.org/2000/svg">
<path d="M244.154 251.837L236.249 260.467C237.663 260.777 240.49 258.147 241.256 258.637C241.386 258.717 241.268 259.587 241.598 259.517C241.88 259.457 246.239 256.887 245.273 258.787C244.307 260.687 237.639 263.537 236.237 265.747C240.101 265.047 246.039 260.427 249.515 259.987C252.483 259.607 246.593 263.717 246.416 264.077L248.101 265.027C237.262 273.527 227.354 283.057 214.772 289.757C214.206 290.437 224.055 303.437 224.974 303.867C225.964 304.327 227.354 304.167 228.32 304.867C233.41 308.537 226.753 326.267 220.45 327.917C211.603 330.237 206.077 323.167 201.53 318.017C198.302 314.367 195.191 308.947 191.775 305.687C191.48 305.407 191.775 304.987 190.785 305.087L189.136 305.657C179.004 313.117 165.432 319.167 155.477 326.497C150.8 329.937 148.408 335.537 140.456 332.927C139.584 330.727 136.651 329.317 135.531 327.507C134.047 325.097 133.269 320.357 132.091 317.477C131.773 316.707 130.748 315.987 130.63 315.307C130.583 315.017 131.891 311.867 132.138 311.477C133.847 308.827 135.213 309.917 137.558 308.887C140.527 307.587 146.535 302.657 149.834 300.597C158.54 295.177 167.27 289.767 176.094 284.477C176.883 283.437 172.654 279.517 172.053 278.197C158.139 284.787 144.921 292.497 131.75 300.107L79.9828 336.757L79.1464 336.057C84.6835 331.147 89.5963 325.747 95.5223 321.167C91.3753 322.017 89.3371 325.837 85.3669 327.167C84.931 325.087 88.2179 324.587 88.1944 322.857C82.8457 322.607 87.6524 318.087 87.6406 317.347C87.6406 316.757 86.6863 316.147 86.5214 315.397C86.3211 314.487 86.7335 313.417 86.5214 312.637C86.4036 312.227 85.3433 312.127 84.9192 311.507C83.8589 309.937 84.2712 308.177 84.8014 306.547C82.3744 306.767 82.1859 308.727 79.6883 307.227L65.0325 313.747C68.9674 306.637 78.0861 300.957 85.4376 296.287C105.748 283.397 129.817 270.427 151.2 258.557C156.16 255.807 160.425 254.647 164.207 250.897C165.927 249.197 181.879 245.997 184.435 246.667C185.389 246.917 185.778 247.927 186.544 248.237C187.498 248.617 188.594 248.387 189.678 248.937C191.669 249.957 194.284 255.967 194.838 257.987C195.415 260.147 195.262 262.457 195.839 264.337C196.063 265.067 199.374 270.427 199.869 270.527C201.459 270.847 205.335 267.087 206.607 266.257C217.399 259.237 230.57 253.337 244.166 251.847L244.154 251.837ZM95.805 319.977V320.457C96.1702 320.297 96.1702 320.137 95.805 319.977ZM89.29 322.847L89.5845 321.417C88.7245 321.907 88.1826 322.927 89.29 322.847Z" fill="black"/>
<path d="M613.766 261.916C617.819 256.636 622.791 251.736 627.056 246.576C629.895 244.926 630.189 247.136 630.201 249.206L627.892 270.556C629.023 270.466 629.235 267.966 629.589 267.686C630.225 267.166 630.743 267.646 630.731 268.416C630.684 272.286 628.469 276.776 627.88 280.646C623.851 286.156 619.127 297.616 616.158 304.036C604.966 328.216 595.199 352.976 585.491 377.566C582.805 384.386 579.459 391.316 576.868 398.306C575.784 401.226 570.329 419.567 569.292 420.297C567.466 421.597 563.213 421.787 561.587 422.637C560.551 423.177 559.667 425.656 557.393 425.956C557.075 425.996 551.738 424.927 551.114 424.757C549.288 424.237 538.06 416.756 536.529 415.306C534.29 413.186 534.608 412.436 534.632 409.716C534.679 403.896 540.228 394.327 542.561 388.387C551.538 365.497 560.869 343.506 570.8 320.956C579.118 302.056 586.776 282.856 596.684 264.476L600.76 260.026L600.206 262.896L601.891 260.986C602.303 261.536 599.7 266.866 601.891 265.296C602.209 265.066 605.649 260.136 606.321 259.216C606.933 258.386 607.027 257.296 607.64 256.496C608.359 255.556 613.319 249.456 613.755 249.216C616.111 247.936 614.956 251.336 614.897 251.866L614.332 252.826C614.155 253.046 613.908 257.226 613.766 258.106C612.152 257.956 612.8 258.216 612.635 259.066C612.435 260.066 612.353 260.916 612.07 261.946C611.987 262.236 609.737 265.846 611.775 265.306C612.376 265.146 613.283 262.566 613.755 261.946L613.766 261.916Z" fill="black"/>
<path d="M408.054 440.407C404.096 440.287 408.726 441.027 407.489 442.317C406.912 442.917 391.784 444.387 389.593 445.127L384.881 447.117C386.601 447.447 397.428 448.157 397.875 448.567C397.981 448.667 397.805 449.617 397.875 449.997C397.687 450.157 393.128 449.737 392.786 450.957C395.884 451.227 399.042 451.227 402.14 451.417C403.012 451.467 404.178 451.357 404.65 452.167C405.168 453.057 403.542 452.977 402.953 453.107C398.947 453.987 395.024 454.357 390.972 454.937C390.371 455.017 388.721 455.057 388.839 455.757C396.462 455.287 404.331 457.207 411.789 457.627C415.512 457.837 414.711 457.387 418.881 458.317C420.648 458.707 422.569 458.247 423.865 459.357C423.841 460.197 415.264 460.927 413.98 461.037C393.292 462.807 372.487 464.867 351.811 466.317C328.178 467.977 303.036 467.107 279.486 469.687C278.178 469.827 276.588 470.137 275.362 470.497C272.099 471.477 267.292 474.567 263.734 472.977C257.42 470.157 249.668 458.297 250.528 452.287C252.366 439.417 274.738 439.677 286.295 439.427C287.909 439.387 289.264 439.957 290.76 439.947C293.011 439.927 296.038 438.917 298.418 438.967C295.226 426.297 293.894 413.317 294.436 400.327C294.483 399.187 294.99 398.127 295.072 396.987C295.261 394.467 293.706 391.887 297.075 389.617C298.819 388.437 308.315 386.247 310.624 386.247C315.395 386.247 324.596 391.357 326.693 395.047C328.79 398.737 327.977 406.607 328.366 410.897C329.203 420.017 330.298 429.177 331.147 438.267C339.723 438.337 348.276 438.027 356.924 438.027C362.249 438.027 366.526 438.407 371.568 438.507C383.255 438.727 394.942 438.577 406.629 438.967L408.054 440.397V440.407Z" fill="black"/>
<path d="M231.725 392.907C230.665 393.837 229.946 395.507 228.344 395.787L230.594 396.017C230.111 396.627 225.893 399.467 226.647 400.097L231.159 398.187L228.909 401.537C239.442 397.967 228.002 405.867 228.344 407.047C228.426 407.347 230.794 408.697 231.36 408.657C231.76 408.627 237.356 404.857 236.249 407.057C235.389 408.757 228.709 412.737 227.224 414.747C230.582 414.317 232.762 410.797 235.73 409.937C236.838 409.617 237.615 410.167 238.911 409.847C242.34 408.977 248.23 404.387 251.8 403.947C252.636 403.847 252.813 403.947 252.66 404.677C252.354 406.137 247.323 409.597 246.451 411.397L250.386 410.427C248.454 411.977 246.711 413.717 244.755 415.237C228.45 427.907 210.966 439.677 194.437 452.167C186.591 458.097 176.518 468.287 167.411 472.407C162.864 474.457 160.354 473.717 156.407 471.517C146.146 465.817 120.71 437.937 112.275 428.377C110.154 425.977 102.014 416.067 101.754 413.757C101.637 412.707 102.32 411.827 102.343 410.897C102.414 408.337 100.989 407.647 103.993 405.147C105.147 404.177 107.739 403.557 107.881 403.417C108.387 402.917 106.997 398.907 110.472 397.217C111.945 396.497 116.528 396.617 118.437 396.747C119.685 396.837 125.376 397.547 126.236 397.807C127.343 398.137 127.414 399.617 128.333 400.347C130.194 401.827 130.501 402.067 132.268 403.727C144.061 414.837 155.877 425.937 167.27 437.347C167.788 437.847 168.354 438.167 169.178 437.987C170.38 437.717 184.682 425.277 187.086 423.397C199.173 413.977 211.85 404.907 225.021 396.587C225.987 395.977 231.053 392.457 231.748 392.947L231.725 392.907ZM228.332 401.547C227.719 401.027 226.588 401.977 227.213 402.497C227.837 403.017 228.956 402.067 228.332 401.547ZM226.353 402.497V402.977C226.718 402.817 226.718 402.657 226.353 402.497Z" fill="black"/>
<path d="M627.892 280.626C628.175 280.236 628.411 279.566 629.011 279.666L629.294 281.106L646.825 266.716C647.508 266.516 647.967 266.826 647.661 267.426C646.954 268.806 642.737 271.796 641.452 273.196L642.843 273.896L662.635 257.606C663.754 258.286 663.495 258.566 663.224 259.526C661.763 264.736 655.59 271.336 653.328 276.556L664.614 267.906C671.188 263.326 683.052 255.136 681.579 269.116L684.972 267.926C683.935 271.646 679.918 274.356 679.023 278.226L703.045 258.086C702.903 260.426 700.182 261.956 698.968 263.976C698.462 264.816 698.674 265.836 698.203 266.686C695.964 270.726 688.554 275.906 685.526 279.916L686.362 280.626L712.081 257.836L713.212 258.316L679.883 292.886C679.977 294.466 679.942 293.556 680.59 293.006C681.638 292.106 682.263 291.796 683.558 291.206L682.71 293.596L684.96 293.116C685.125 293.846 684.878 294.236 684.43 294.816C681.556 298.576 671.494 305.016 667.135 308.926C645.14 328.706 620.27 346.506 597.909 366.276C593.738 369.966 589.886 374.016 585.503 377.556C595.211 352.966 604.978 328.206 616.17 304.026C619.139 297.606 623.875 286.146 627.892 280.636V280.626ZM640.616 274.386V274.866C640.981 274.706 640.981 274.546 640.616 274.386ZM639.768 275.356L636.375 277.986L635.255 279.666C635.821 280.166 640.545 276.566 639.768 275.356ZM635.244 280.156C633.865 279.966 632.016 282.026 633.547 282.066L635.244 280.156ZM684.689 281.586V282.066C685.055 281.906 685.055 281.746 684.689 281.586ZM683.841 283.026C684.242 282.356 683.488 281.746 683.287 282.076C682.887 282.746 683.641 283.356 683.841 283.026ZM631.002 283.026V283.506C631.368 283.346 631.368 283.186 631.002 283.026ZM681.874 294.076L679.906 295.746L680.177 295.976L682.145 294.306L681.874 294.076Z" fill="#FFBF10"/>
<path d="M458.914 329.566C460.457 326.186 462.931 322.346 465.017 319.156C466.018 317.636 473.476 307.216 474.159 306.766C474.583 306.486 474.771 306.476 475.302 306.536C475.844 310.246 473.676 313.916 474.453 317.566C476.256 316.956 476.963 308.946 479.26 310.846C479.555 311.096 478.636 312.876 479.826 312.766C480.65 311.076 485.528 302.056 486.6 301.476C488.402 300.496 488.202 301.596 488.591 302.686C490.735 300.836 492.007 297.066 495.66 297.406L493.975 316.116C495.777 315.236 500.125 306.966 500.843 306.606C501.373 306.336 502.34 306.596 503.011 306.526C501.008 324.266 492.844 340.726 486.058 357.386C480.65 370.656 475.384 383.866 470.236 397.206C470.177 397.346 470.295 397.546 470.236 397.686L469.67 398.646C468.033 402.896 464.746 413.026 462.048 415.926C461.235 416.796 457.783 419.746 456.699 420.026C454.92 420.496 448.912 420.426 447.038 420.016C441.973 418.906 434.162 415.176 430.934 411.616C427.34 407.646 429.414 407.626 430.698 404.196C434.539 393.836 437.449 383.026 441.407 372.746C444.882 363.716 449.206 354.816 452.964 345.856C455.203 340.536 456.534 334.776 458.926 329.566H458.914Z" fill="black"/>
<path d="M534.644 409.696C529.448 411.496 525.761 415.916 521.649 419.056C518.656 421.346 511.929 426.956 508.949 428.426C508.124 428.836 507.7 429.026 506.699 428.906L470.212 397.226C475.36 383.876 480.627 370.666 486.034 357.406L506.64 375.666L508.289 376.096L570.812 320.946C560.892 343.496 551.55 365.496 542.572 388.376C540.24 394.326 534.679 403.886 534.644 409.706V409.696Z" fill="#FFBF10"/>
<path d="M542.926 473.346C542.525 473.676 541.488 474.276 540.994 474.366C539.721 474.596 530.579 472.876 529.047 472.266C527.233 471.546 516.548 465.026 515.063 463.746C514.238 463.036 511.446 459.946 511.164 459.136C509.055 453.076 514.038 451.676 518.527 448.556C520.659 447.076 523.074 445.046 525.289 443.766C529.837 441.136 529.236 443.196 532.664 443.326C535.138 443.426 535.916 441.616 538.743 442.916C541.571 444.216 544.693 453.016 544.646 455.626C544.622 456.616 543.55 457.216 543.75 458.306C543.915 459.186 545.27 459.876 545.364 460.826C545.447 461.626 544.728 462.486 544.775 463.236C544.987 466.546 546.342 470.566 542.914 473.366L542.926 473.346Z" fill="black"/>
<path d="M469.647 398.667L470.212 397.707C470.024 398.187 469.706 398.507 469.647 398.667Z" fill="#FFD301"/>
<path d="M441.395 372.756C439.64 371.246 430.085 363.286 430.073 361.966L435.74 356.206H434.056L437.154 352.136C430.415 356.036 425.267 361.556 419.353 366.286C417.055 368.126 413.969 369.936 411.695 371.786C397.97 382.986 385.116 394.976 371.05 405.896C369.919 406.536 367.88 406.576 366.608 406.246C363.781 405.526 356.158 395.816 354.002 393.446C339.935 378.026 326.281 362.526 313.286 346.426C312.509 345.456 310.329 344.996 311.048 343.006C311.66 341.346 314.735 339.376 314.782 337.256C311.46 339.256 309.94 343.006 306.324 344.696L316.196 332.926C313.828 333.536 311.967 335.506 310.259 336.996C302.448 343.796 295.32 351.786 288.581 359.376C285.2 363.186 281.748 368.616 278.06 372.036C277.306 372.736 276.541 373.386 275.398 373.616C252.955 374.336 230.723 376.896 208.292 377.576C142.459 379.566 76.3305 378.616 10.4853 380.936C8.777 380.996 5.38401 381.426 4.52398 379.966L31.9271 378.036L37.2994 377.076H2.54475C0.388785 377.076 -1.06031 373.196 1.36663 371.756C3.13381 370.716 12.0286 370.686 12.4292 370.356C12.6884 370.146 11.8637 366.256 13.1243 365.186C14.3849 364.116 19.8514 364.136 20.2637 363.566C20.6054 363.086 20.1577 360.286 20.9941 359.866C21.6303 359.536 26.496 359.446 27.6859 359.316L0 356.436L0.836493 355.486L27.1204 354.526L15.2567 350.926L16.5408 349.626L24.2929 347.816L12.1464 347.326L6.20873 346.376C14.1964 346.556 22.2547 346.116 30.2424 346.356C89.3724 348.096 147.878 347.946 207.137 345.916L259.552 342.916C260.907 342.576 271.675 328.786 273.619 326.546C284.493 314.026 296.663 300.876 308.833 289.266C314.052 284.286 319.742 279.636 325.232 274.886C323.336 279.666 316.656 282.486 316.738 287.826C318.458 287.376 320.002 284.326 321.545 286.166L318.164 292.876C321.651 291.656 323.854 288.086 327.754 287.836C328.555 288.546 324.478 298.106 323.889 299.716C323.772 300.686 328.625 306.106 329.686 307.546C334.316 313.826 338.899 321.236 343.906 327.146C351.893 336.576 362.897 345.046 371.014 354.526C376.587 350.476 381.971 345.826 387.096 341.346C394.647 334.756 402.128 327.536 410.257 321.176C421.532 312.336 433.785 304.396 445.024 295.516C445.801 295.866 445.118 296.776 444.765 297.216C443.104 299.306 439.569 301.556 437.967 303.916L441.914 302.236C442.703 302.886 437.496 306.316 438.615 307.646L458.879 329.586C456.487 334.796 455.156 340.566 452.917 345.876C449.159 354.836 444.835 363.726 441.36 372.766L441.395 372.756Z" fill="#FFBF10"/>
<path d="M89.2898 322.846C88.1823 322.926 88.7243 321.907 89.5843 321.417L89.2898 322.846Z" fill="black"/>
<path d="M95.8051 319.977C96.1703 320.137 96.1703 320.297 95.8051 320.457V319.977Z" fill="black"/>
<path d="M228.332 401.546C228.944 402.066 227.825 403.026 227.213 402.496C226.6 401.966 227.719 401.016 228.332 401.546Z" fill="black"/>
<path d="M226.353 402.497C226.718 402.657 226.718 402.817 226.353 402.977V402.497Z" fill="black"/>
<path d="M639.768 275.356C640.533 276.576 635.821 280.176 635.255 279.666L636.375 277.986L639.768 275.356Z" fill="#FFD300"/>
<path d="M635.244 280.156L633.547 282.066C632.016 282.016 633.865 279.956 635.244 280.156Z" fill="#FFD300"/>
<path d="M683.841 283.026C683.641 283.356 682.887 282.746 683.287 282.076C683.488 281.746 684.242 282.356 683.841 283.026Z" fill="#FFD300"/>
<path d="M681.92 294.135L679.945 295.811L680.212 296.037L682.186 294.362L681.92 294.135Z" fill="#FFD300"/>
<path d="M631.002 283.026C631.367 283.186 631.367 283.346 631.002 283.506V283.026Z" fill="#FFD300"/>
<path d="M684.689 281.586C685.055 281.746 685.055 281.906 684.689 282.066V281.586Z" fill="#FFD300"/>
</svg>
